<?xml version="1.0" encoding="utf-8"?>
<!-- Svg Vector Icons : http://www.onlinewebfonts.com/icon -->
<!DOCTYPE svg PUBLIC "-//W3C//DTD SVG 1.1//EN" "http://www.w3.org/Graphics/SVG/1.1/DTD/svg11.dtd">
<svg version="1.1" xmlns="http://www.w3.org/2000/svg" xmlns:xlink="http://www.w3.org/1999/xlink" x="0px" y="0px" viewBox="0 0 1000 1000" enable-background="new 0 0 1000 1000" xml:space="preserve">
<metadata> Svg Vector Icons : http://www.onlinewebfonts.com/icon </metadata>
<g><g transform="translate(0.000000,511.000000) scale(0.100000,-0.100000)"><path d="M2114.2,4044.3C1449.9,3943,901,3450.7,721.9,2798.1c-58.9-212-58.9-638.4-2.4-859.9c193.2-746.8,866.9-1267.4,1642-1267.4c567.7,0,1083.7,270.9,1401.7,735l113.1,164.9l89.5-136.6c150.8-223.8,409.9-452.3,652.5-574.8c292.1-146.1,504.1-190.8,836.3-176.7c457,21.2,819.8,181.4,1135.5,501.8c195.5,197.9,318,400.5,405.2,659.6c56.5,167.3,63.6,226.2,66,518.3c0,301.5-4.7,346.3-68.3,539.5c-155.5,471.2-515.9,855.2-980,1043.6c-482.9,193.2-1057.7,150.8-1498.3-113.1c-188.5-115.4-417-332.2-532.4-506.5c-54.2-82.5-106-150.8-113.1-150.8c-7.1,0-42.4,49.5-82.5,113.1c-214.4,343.9-638.4,640.8-1050.7,732.6C2571.2,4058.4,2269.7,4070.2,2114.2,4044.3z M2597.1,2819.3c475.9-237.9,308.6-965.9-223.8-965.9c-306.3,0-515.9,205-515.9,508.8C1857.4,2755.7,2246.1,2998.3,2597.1,2819.3z M5654.9,2805.2c77.7-47.1,127.2-103.7,176.7-195.5c237.9-452.3-237.9-928.2-690.2-690.2c-216.7,115.4-322.7,358.1-259.1,593.6c33,129.6,190.8,299.2,318,346.3C5336.9,2908.8,5523,2887.6,5654.9,2805.2z"/><path d="M8592.5-469.3c-699.7-407.5-1286.2-749.1-1300.4-753.8c-23.6-9.4-30.6,131.9-30.6,662v673.7H3680.8H100v-1978.8v-1978.8h3580.8h3580.8l4.7,857.5l7.1,855.1l1225-716.2c673.7-393.4,1265-737.3,1314.5-763.3l87.2-44.8v1967.1c0,1081.3-7.1,1967.1-16.5,1967.1C9871.7,275.1,9292.2-59.4,8592.5-469.3z"/></g></g>
</svg>