<?xml version="1.0" standalone="no"?>
<!DOCTYPE svg PUBLIC "-//W3C//DTD SVG 20010904//EN"
 "http://www.w3.org/TR/2001/REC-SVG-20010904/DTD/svg10.dtd">
<svg version="1.0" xmlns="http://www.w3.org/2000/svg"
 width="1820.000000pt" height="1214.000000pt" viewBox="0 0 1820.000000 1214.000000"
 preserveAspectRatio="xMidYMid meet">

<g transform="translate(0.000000,1214.000000) scale(0.100000,-0.100000)"
fill="#000000" stroke="none">
<path d="M8705 11975 c-5 -2 -75 -9 -155 -14 -80 -6 -179 -15 -220 -21 -41 -6
-91 -12 -110 -15 -31 -4 -67 -9 -190 -30 -37 -6 -73 -14 -185 -41 -38 -9 -79
-18 -90 -20 -48 -8 -81 -16 -100 -24 -11 -4 -40 -13 -65 -20 -25 -7 -70 -21
-100 -30 -30 -10 -80 -25 -110 -34 -30 -9 -64 -21 -75 -25 -32 -14 -159 -63
-170 -66 -15 -3 -66 -24 -99 -41 -16 -8 -33 -14 -39 -14 -9 0 -84 -35 -267
-125 -167 -82 -309 -163 -465 -263 -163 -105 -210 -136 -215 -142 -3 -3 -48
-37 -100 -75 -52 -39 -115 -87 -140 -108 -25 -21 -79 -66 -120 -100 -253 -209
-650 -646 -830 -913 -100 -149 -173 -260 -193 -295 -14 -24 -37 -66 -53 -94
-15 -27 -38 -68 -51 -90 -39 -68 -200 -400 -223 -460 -14 -36 -42 -110 -53
-135 -35 -89 -64 -171 -102 -295 -20 -66 -40 -131 -45 -145 -4 -14 -20 -74
-35 -135 -14 -60 -30 -126 -35 -145 -5 -19 -14 -62 -20 -95 -7 -33 -14 -71
-17 -85 -3 -14 -7 -36 -8 -50 -2 -14 -8 -56 -15 -95 -78 -493 -77 -991 6
-1518 28 -176 31 -187 47 -182 7 3 26 7 42 10 17 3 53 10 80 16 28 6 65 13 83
16 17 3 32 8 32 12 0 3 -5 33 -10 66 -26 146 -40 254 -52 377 -14 147 -18 731
-5 868 10 108 34 300 47 365 5 28 11 61 13 75 29 174 141 601 187 705 4 11 20
54 35 95 15 41 33 89 40 105 7 17 23 55 35 84 18 47 94 214 119 261 40 78 120
224 173 315 33 58 152 240 193 296 11 15 40 56 65 91 25 34 55 74 65 87 185
224 249 296 400 446 204 204 469 427 650 546 137 91 277 180 320 204 28 15 73
41 100 56 83 48 394 199 409 199 3 0 29 11 58 24 86 39 207 86 223 86 9 0 23
4 33 9 29 15 66 29 102 40 19 6 57 18 83 26 26 8 56 15 67 15 10 0 22 5 25 10
3 6 19 10 34 10 15 0 31 4 36 8 6 5 37 15 70 22 33 7 74 16 90 21 17 4 59 13
95 20 36 6 85 15 110 20 66 13 150 26 280 42 152 18 127 17 440 25 385 10 643
-8 955 -68 28 -5 77 -14 110 -19 68 -11 180 -38 255 -61 14 -4 43 -12 65 -18
64 -17 218 -63 240 -72 11 -5 56 -21 100 -36 44 -14 98 -34 120 -44 22 -10 69
-30 105 -45 391 -163 727 -361 1083 -639 56 -44 117 -93 136 -110 19 -17 58
-51 86 -76 89 -78 359 -355 447 -456 163 -190 392 -510 493 -689 69 -123 109
-199 167 -318 l63 -128 35 4 c150 19 216 29 223 36 4 4 0 25 -9 47 -21 50
-137 287 -167 339 -22 38 -44 77 -104 185 -23 41 -224 343 -276 415 -43 59
-215 271 -277 340 -142 159 -422 434 -525 515 -18 14 -74 59 -126 100 -51 41
-107 85 -123 97 -86 61 -377 254 -419 277 -26 14 -58 32 -70 40 -81 50 -347
186 -364 186 -7 0 -13 5 -13 10 0 6 -7 10 -15 10 -14 0 -89 31 -168 71 -22 10
-42 19 -47 19 -4 0 -25 8 -46 17 -22 9 -41 17 -44 18 -16 3 -59 18 -80 27 -54
23 -67 28 -120 44 -30 9 -80 24 -110 34 -30 9 -75 23 -100 30 -25 7 -56 16
-70 20 -31 10 -80 23 -100 26 -8 1 -37 7 -65 14 -153 35 -312 65 -390 75 -16
2 -70 9 -120 15 -49 6 -139 16 -200 21 -119 10 -644 21 -660 14z"/>
<path d="M8988 11485 c-2 -1 -100 -5 -219 -8 -119 -4 -222 -9 -230 -11 -8 -3
-43 -7 -79 -10 -104 -8 -321 -43 -460 -75 -25 -5 -56 -12 -70 -14 -41 -8 -83
-18 -110 -27 -14 -4 -45 -13 -70 -20 -25 -7 -70 -21 -100 -30 -30 -10 -80 -25
-110 -34 -30 -9 -64 -21 -75 -26 -11 -4 -42 -16 -70 -25 -27 -10 -69 -26 -92
-36 -24 -11 -47 -19 -51 -19 -5 0 -31 -11 -58 -25 -27 -14 -53 -25 -57 -25
-19 0 -418 -205 -466 -239 -16 -12 -32 -21 -35 -21 -3 0 -31 -17 -62 -37 -31
-21 -75 -49 -98 -62 -23 -13 -43 -27 -46 -30 -3 -4 -43 -33 -90 -66 -311 -215
-646 -531 -903 -851 -26 -32 -64 -79 -84 -104 -54 -68 -254 -372 -315 -480
-30 -52 -86 -160 -125 -240 -74 -152 -87 -180 -123 -270 -12 -30 -27 -66 -32
-80 -10 -24 -22 -54 -39 -95 -4 -11 -19 -58 -34 -105 -15 -47 -30 -94 -34
-105 -17 -43 -81 -289 -106 -410 -3 -16 -10 -50 -15 -75 -12 -55 -35 -212 -57
-385 -24 -191 -24 -716 1 -920 10 -82 19 -161 21 -175 8 -75 36 -210 44 -210
18 2 139 31 246 60 44 12 87 23 95 24 8 1 26 6 40 10 14 3 43 12 65 18 83 22
92 28 106 71 22 69 77 174 134 261 62 93 211 243 300 303 80 53 218 119 300
144 22 6 50 15 63 20 66 25 372 34 471 13 90 -18 145 -34 196 -54 108 -43 136
-57 223 -113 l64 -41 56 19 c32 11 64 22 72 26 47 21 97 41 190 75 41 15 80
30 85 34 6 4 37 17 70 30 33 13 76 29 95 37 19 8 44 18 55 23 67 25 75 33 75
69 0 68 35 148 89 204 54 58 111 80 201 80 87 0 147 -23 195 -73 26 -27 35
-30 64 -25 18 4 41 10 50 15 24 13 80 36 141 59 30 12 65 26 78 31 12 6 32 14
45 19 12 5 38 16 57 24 19 8 107 43 195 77 88 34 176 69 195 77 49 21 68 28
125 48 28 10 70 27 95 37 55 25 66 29 160 63 41 15 84 31 95 35 11 5 28 11 38
14 9 3 17 14 17 25 0 45 44 135 86 178 60 59 121 85 208 85 37 0 73 -5 79 -11
6 -6 17 -11 25 -11 8 0 35 -15 61 -34 l47 -35 85 30 c46 17 104 37 129 45 25
8 52 18 60 22 8 4 42 16 75 26 33 10 68 22 77 27 10 5 25 9 33 9 8 0 24 5 35
10 11 6 29 15 40 20 11 6 28 10 38 10 10 0 22 3 26 8 4 4 11 7 14 8 4 0 35 9
69 19 61 19 62 20 78 70 94 297 314 555 589 689 61 29 92 43 116 51 3 1 19 5
35 9 17 4 39 11 50 16 28 12 74 20 193 32 105 12 256 2 352 -21 25 -6 55 -14
68 -16 65 -15 207 -80 292 -134 30 -19 92 -66 138 -104 69 -57 87 -68 110 -63
15 3 43 8 62 12 19 3 58 10 85 15 112 21 172 31 217 38 26 4 51 10 54 14 8 7
-60 147 -142 292 -122 217 -311 490 -491 709 -31 39 -134 147 -227 241 -220
221 -294 287 -486 432 -52 40 -99 76 -105 81 -31 24 -144 99 -167 111 -15 8
-37 22 -47 33 -11 10 -24 18 -28 18 -4 0 -28 14 -53 30 -25 17 -58 37 -75 45
-16 8 -50 27 -75 41 -56 33 -336 174 -345 174 -3 0 -27 9 -53 21 -104 47 -139
61 -207 84 -27 9 -59 20 -70 25 -39 16 -120 41 -230 71 -22 6 -49 15 -60 19
-21 9 -134 38 -170 45 -11 2 -45 9 -75 15 -118 26 -189 39 -340 61 -109 16
-117 17 -315 29 -99 6 -197 12 -217 14 -20 2 -38 3 -40 1z m637 -446 c289 -55
537 -201 698 -412 76 -99 138 -206 176 -305 37 -96 46 -135 67 -287 22 -153 5
-306 -53 -485 -14 -41 -29 -79 -34 -84 -5 -6 -9 -15 -9 -22 0 -11 -79 -151
-100 -177 -68 -85 -140 -162 -192 -208 -66 -58 -169 -129 -188 -129 -5 0 -10
-3 -10 -8 0 -7 -9 -11 -95 -47 -42 -18 -135 -49 -195 -65 -145 -39 -347 -39
-500 0 -86 22 -157 44 -180 56 -14 7 -43 21 -65 30 -75 33 -210 127 -284 198
-321 308 -436 755 -302 1173 106 330 386 616 706 721 80 26 131 40 185 50 61
12 313 13 375 1z m-2873 -1030 c57 -6 126 -17 153 -25 135 -36 161 -45 233
-80 77 -37 159 -86 203 -121 105 -83 241 -238 292 -331 72 -134 108 -226 128
-327 55 -274 22 -530 -98 -765 -156 -306 -447 -525 -790 -596 -140 -29 -416
-21 -508 15 -11 5 -38 14 -60 20 -22 7 -49 16 -60 20 -11 5 -40 17 -65 27 -67
27 -207 119 -280 184 -63 56 -113 113 -185 211 -69 94 -151 284 -170 394 -4
22 -10 56 -13 75 -9 47 -9 295 0 345 21 120 31 156 80 275 71 170 239 376 394
480 40 28 76 50 79 50 3 0 22 11 43 23 37 24 129 62 187 78 17 4 48 13 70 20
32 9 158 28 252 38 7 0 59 -4 115 -10z m1893 -1695 c71 -24 126 -73 164 -148
33 -63 34 -170 2 -237 -25 -52 -78 -107 -136 -140 -58 -33 -192 -33 -250 0
-162 93 -207 264 -109 417 33 51 100 102 154 115 47 12 129 9 175 -7z"/>
<path d="M14415 8815 c-5 -2 -71 -9 -145 -14 -74 -6 -182 -15 -240 -21 -58 -6
-125 -13 -150 -15 -82 -8 -392 -48 -575 -75 -44 -7 -91 -14 -105 -15 -14 -2
-56 -9 -95 -15 -38 -6 -92 -15 -120 -20 -27 -4 -76 -13 -107 -19 -70 -13 -164
-31 -198 -36 -44 -8 -201 -39 -272 -55 -27 -5 -67 -14 -90 -19 -207 -44 -236
-50 -315 -71 -21 -5 -56 -13 -78 -18 -119 -27 -232 -55 -250 -62 -11 -5 -31
-11 -45 -14 -14 -2 -43 -10 -65 -16 -22 -6 -65 -17 -95 -25 -30 -8 -71 -18
-90 -24 -19 -5 -46 -13 -60 -16 -14 -4 -34 -10 -45 -15 -11 -4 -49 -16 -85
-25 -70 -18 -123 -33 -155 -45 -55 -21 -188 -60 -204 -60 -9 0 -21 -4 -26 -8
-6 -5 -77 -30 -160 -56 -82 -26 -159 -51 -170 -56 -11 -4 -36 -13 -55 -20 -19
-7 -44 -16 -55 -20 -11 -5 -45 -16 -75 -25 -60 -17 -156 -52 -180 -65 -9 -4
-31 -11 -50 -15 -19 -4 -39 -10 -45 -14 -5 -4 -28 -13 -50 -20 -40 -12 -59
-19 -105 -39 -27 -11 -122 -46 -130 -48 -6 -1 -37 -13 -65 -24 -11 -5 -54 -21
-95 -35 -41 -15 -86 -32 -100 -38 -14 -5 -35 -14 -47 -18 -13 -5 -33 -13 -45
-18 -13 -5 -57 -21 -98 -36 -41 -15 -88 -33 -105 -40 -16 -8 -57 -23 -90 -35
-33 -12 -74 -28 -91 -36 -17 -7 -84 -34 -150 -60 -130 -50 -180 -71 -206 -85
-10 -5 -23 -9 -29 -9 -6 0 -27 -7 -47 -16 -86 -38 -105 -46 -194 -80 -90 -35
-116 -45 -194 -80 -20 -9 -42 -17 -48 -19 -12 -2 -50 -17 -101 -39 -69 -31
-165 -70 -175 -72 -10 -2 -45 -16 -85 -34 -93 -42 -114 -50 -127 -50 -8 0 -18
-4 -24 -8 -5 -5 -63 -30 -129 -56 -137 -54 -144 -57 -205 -84 -25 -10 -67 -27
-95 -37 -59 -20 -81 -29 -115 -43 -14 -6 -59 -22 -100 -37 -71 -25 -91 -33
-142 -54 -60 -26 -219 -81 -231 -81 -7 0 -17 -4 -23 -8 -5 -5 -49 -21 -99 -37
-83 -26 -103 -33 -160 -56 -27 -11 -191 -65 -235 -77 -19 -6 -66 -21 -105 -35
-38 -14 -97 -33 -130 -42 -33 -9 -68 -21 -77 -26 -10 -5 -25 -9 -33 -9 -8 0
-23 -4 -33 -9 -9 -5 -57 -21 -107 -36 -49 -15 -101 -30 -115 -35 -14 -4 -45
-13 -70 -20 -25 -7 -54 -16 -65 -21 -11 -4 -36 -11 -55 -15 -19 -4 -39 -9 -45
-10 -5 -2 -44 -13 -85 -25 -41 -11 -88 -25 -105 -29 -16 -5 -70 -18 -120 -30
-49 -12 -99 -26 -110 -30 -11 -5 -33 -11 -50 -13 -16 -3 -55 -12 -86 -20 -49
-14 -96 -25 -294 -67 -22 -5 -58 -13 -80 -18 -37 -9 -176 -37 -305 -63 -102
-20 -155 -31 -195 -39 -56 -12 -116 -23 -145 -26 -14 -2 -50 -8 -80 -14 -75
-15 -158 -30 -203 -36 -33 -5 -37 -9 -31 -28 8 -28 72 -211 89 -258 8 -21 24
-66 35 -100 11 -35 25 -72 29 -83 10 -22 36 -93 76 -205 15 -41 35 -97 45
-125 27 -73 98 -280 121 -355 11 -36 24 -74 29 -85 5 -11 27 -74 49 -140 22
-66 61 -178 87 -250 52 -141 53 -150 34 -305 -7 -58 -14 -127 -15 -155 -14
-388 -34 -630 -65 -795 -5 -25 -21 -108 -35 -185 -14 -77 -30 -156 -35 -176
-6 -20 -10 -47 -10 -59 0 -13 -4 -37 -9 -54 -5 -17 -17 -76 -26 -131 -9 -55
-19 -113 -22 -129 l-5 -29 68 7 c107 12 117 13 154 20 19 4 51 9 70 11 19 2
67 9 105 15 39 7 95 16 125 20 109 18 176 29 240 41 36 6 72 13 80 14 79 12
275 50 340 65 19 5 76 16 125 25 50 9 106 20 125 25 71 18 256 62 275 66 11 2
56 13 100 24 44 12 96 25 115 30 19 5 53 14 75 20 22 6 65 17 95 24 30 8 75
20 100 28 56 19 151 45 175 49 6 1 24 8 40 15 17 7 33 13 38 13 18 2 64 13 82
21 11 4 74 24 140 44 66 20 172 53 235 73 63 19 131 40 150 46 19 5 44 13 55
17 11 5 36 13 55 20 19 7 44 16 55 21 11 4 47 15 80 24 33 9 69 20 80 25 11 4
36 13 55 20 19 7 44 16 55 20 11 5 56 20 100 35 44 14 89 30 100 34 11 5 31
13 45 19 14 6 70 27 125 47 55 21 104 42 109 46 6 5 16 9 24 9 7 0 38 11 68
25 30 14 57 25 59 25 2 0 29 11 59 25 30 14 58 25 63 25 4 0 26 9 48 19 42 20
126 58 160 72 30 12 104 44 155 67 25 11 72 31 105 45 33 14 90 39 127 56 36
17 69 31 72 31 3 0 33 13 68 29 60 27 120 54 198 88 19 9 63 28 97 44 34 16
65 29 68 29 4 0 40 16 81 35 40 19 76 35 80 35 4 0 30 11 58 24 106 51 185 86
192 86 4 0 31 11 61 25 29 14 77 36 106 50 30 14 57 25 61 25 6 0 63 24 152
66 28 13 56 24 62 24 5 0 27 9 49 19 52 26 132 61 138 61 4 0 27 9 53 21 84
38 136 60 212 90 19 8 37 14 40 15 3 0 16 6 30 11 14 6 68 28 120 48 52 20
111 44 130 52 58 25 73 31 125 48 60 20 75 26 137 54 26 12 51 21 55 21 8 0
135 46 168 61 11 4 97 34 190 64 94 31 179 60 190 65 16 7 55 18 85 24 13 3
187 59 205 66 11 5 40 13 65 20 25 6 59 15 75 20 17 5 47 14 68 19 20 6 52 15
70 20 31 10 96 28 127 35 8 3 33 9 55 15 22 5 58 15 80 21 47 13 78 21 200 49
50 12 104 26 121 31 17 6 42 10 57 10 14 0 28 4 31 9 3 5 20 11 38 14 18 2 92
17 163 32 147 31 189 40 260 54 28 6 79 17 115 24 36 8 72 15 80 15 8 1 35 6
60 11 51 10 133 26 215 41 30 6 81 15 113 21 31 5 100 17 152 25 52 8 120 18
150 24 156 27 236 39 425 66 66 9 145 20 175 24 30 5 93 13 139 19 46 6 87 13
90 16 4 2 31 5 59 6 32 2 52 7 52 15 0 10 -12 40 -60 149 -10 22 -30 69 -45
105 -15 36 -37 88 -50 115 -12 28 -53 122 -90 210 -37 88 -73 175 -81 193 -34
78 -46 108 -119 297 -42 110 -83 214 -90 230 -8 17 -23 57 -35 90 -12 33 -30
78 -39 100 -10 22 -31 73 -46 114 -25 67 -27 78 -17 125 10 45 18 101 47 356
4 30 11 109 16 175 6 66 14 170 19 230 18 204 31 360 35 415 8 123 52 435 71
513 l6 27 -88 -1 c-49 0 -93 -2 -99 -4z m-30 -134 c12 -21 21 -172 11 -186
-15 -18 -276 -30 -276 -13 0 7 -5 51 -10 97 -5 47 -7 87 -4 90 14 14 270 25
279 12z m-451 -30 c8 -12 27 -194 21 -199 -9 -9 -269 -32 -277 -24 -9 9 -27
185 -19 194 3 3 58 12 121 18 63 7 117 14 119 16 8 7 30 4 35 -5z m-440 -68
c2 -10 8 -57 11 -104 l7 -86 -48 -6 c-84 -11 -186 -27 -209 -33 -21 -5 -22 -1
-34 95 -7 55 -10 104 -7 109 3 5 31 12 63 16 32 4 81 10 108 15 83 14 103 13
109 -6z m-435 -148 c7 -52 10 -98 7 -103 -10 -16 -245 -58 -270 -49 -11 5 -16
20 -16 54 -1 26 -5 67 -9 91 -10 53 -8 55 134 81 156 29 141 36 154 -74z
m-443 -90 c6 -49 7 -95 3 -101 -5 -5 -39 -16 -76 -23 -37 -8 -94 -20 -127 -28
-32 -8 -62 -11 -66 -6 -4 4 -12 50 -17 102 l-9 93 25 9 c42 16 195 47 226 45
l30 -1 11 -90z m-444 -51 c12 -92 9 -151 -7 -158 -29 -11 -225 -56 -243 -56
-16 0 -20 12 -28 96 -6 64 -6 98 1 104 12 10 245 69 260 66 6 -2 13 -25 17
-52z m-440 -133 c3 -39 9 -82 12 -95 7 -30 -7 -42 -64 -55 -25 -6 -76 -20
-115 -31 -102 -29 -105 -29 -106 28 0 26 -4 68 -8 94 -4 26 -5 51 -2 55 6 8
41 21 116 41 22 6 63 18 90 26 28 7 55 13 60 12 6 -2 13 -35 17 -75z m-441
-92 c4 -24 8 -71 10 -103 l4 -59 -115 -34 c-166 -50 -156 -50 -163 -15 -3 16
-9 63 -13 104 l-7 75 74 22 c41 12 99 30 129 40 30 10 59 17 65 16 5 -1 13
-22 16 -46z m-432 -189 c6 -51 8 -97 6 -100 -6 -9 -264 -94 -269 -89 -2 2 -9
49 -16 103 -14 114 -19 105 85 136 39 11 93 29 120 39 28 10 53 15 57 11 4 -3
12 -48 17 -100z m2710 3 c10 -12 33 -94 55 -195 20 -95 46 -209 56 -253 10
-44 28 -127 40 -185 11 -58 27 -132 35 -165 15 -64 87 -393 112 -510 76 -367
86 -402 121 -468 19 -38 46 -76 59 -84 13 -8 23 -18 23 -22 0 -9 -79 -22 -515
-87 -55 -8 -115 -17 -132 -20 -38 -6 -42 5 -12 32 56 50 66 131 35 284 -37
185 -44 195 -124 185 -45 -6 -232 -40 -279 -50 -34 -8 -51 -42 -79 -156 -26
-110 -36 -149 -53 -215 -18 -68 -14 -100 15 -123 14 -11 30 -22 37 -24 30 -11
-3 -20 -233 -66 -52 -11 -97 -18 -99 -16 -2 3 11 21 29 42 44 49 72 117 99
238 13 55 49 208 81 340 32 132 63 265 70 295 6 30 15 66 20 80 4 14 12 48 19
75 6 28 54 226 107 440 88 357 96 396 91 464 -4 67 -7 76 -37 104 -41 38 -39
39 120 61 133 19 160 21 253 21 58 0 72 -4 86 -22z m-3156 -65 c4 -13 9 -59
13 -104 l7 -81 -29 -11 c-16 -6 -65 -23 -109 -37 -44 -14 -90 -31 -103 -37
-14 -8 -26 -8 -32 -2 -15 15 -25 200 -11 208 15 10 233 85 247 86 7 0 14 -10
17 -22z m1871 -120 c9 -15 3 -25 -33 -62 -38 -39 -45 -53 -53 -103 -4 -32 -5
-440 -2 -908 7 -924 4 -883 64 -925 17 -12 29 -27 27 -33 -2 -6 -68 -28 -148
-48 -223 -58 -338 -89 -383 -103 -75 -25 -96 -27 -96 -13 0 8 8 21 18 30 10 9
28 36 40 60 22 44 22 47 23 690 0 356 -2 651 -6 657 -11 18 -34 10 -49 -17 -7
-16 -17 -53 -21 -83 -4 -30 -17 -118 -30 -195 -13 -77 -33 -196 -45 -265 -11
-69 -28 -165 -36 -215 -8 -49 -19 -115 -24 -145 -5 -30 -25 -149 -45 -265 -20
-115 -39 -226 -42 -245 -8 -46 -29 -87 -52 -99 -16 -9 -70 -28 -289 -104 -47
-16 -67 -19 -80 -11 -44 27 -86 148 -132 379 -6 33 -16 78 -20 100 -5 22 -25
126 -45 230 -65 343 -100 518 -117 588 -11 47 -35 58 -60 28 -17 -22 -18 -57
-18 -696 l0 -673 43 -36 c34 -30 39 -38 27 -46 -21 -14 -344 -140 -358 -140
-19 0 -14 26 12 57 61 73 60 69 67 438 4 187 7 600 8 918 1 622 0 631 -51 657
-46 25 -58 40 -45 61 13 21 40 33 292 121 184 65 273 78 329 49 32 -17 37 -37
77 -259 16 -92 33 -192 39 -222 12 -71 43 -260 75 -475 51 -337 95 -601 105
-637 15 -52 45 -52 67 -1 17 43 28 102 83 458 12 77 44 273 71 435 28 162 54
320 59 350 48 301 93 538 105 556 34 52 120 82 385 135 80 16 163 33 185 38
52 12 66 10 79 -11z m-2298 -105 c6 -54 9 -102 7 -108 -2 -5 -25 -17 -51 -26
-26 -9 -85 -31 -132 -48 -47 -17 -86 -31 -87 -31 -4 0 -12 65 -17 138 l-5 73
37 16 c57 25 216 82 228 83 6 0 14 -41 20 -97z m-442 -90 c3 -16 8 -64 11
-108 l6 -80 -63 -23 c-70 -26 -86 -33 -140 -56 -67 -29 -74 -25 -81 52 -4 37
-7 84 -7 104 l0 36 128 51 c70 28 130 51 134 51 3 0 9 -12 12 -27z m-426 -245
c9 -90 8 -105 -5 -115 -22 -17 -252 -108 -258 -101 -3 2 -7 31 -10 64 -3 32
-8 75 -10 95 -3 26 0 41 11 50 17 14 231 107 250 108 7 1 15 -38 22 -101z
m-434 -174 c3 -52 8 -101 9 -107 2 -11 -236 -116 -265 -117 -15 0 -18 10 -19
63 0 34 -3 81 -5 104 l-5 43 63 28 c35 16 86 37 113 47 28 10 54 22 60 27 5 4
16 8 26 8 13 0 17 -16 23 -96z m-440 -121 c3 -21 8 -70 11 -109 l7 -71 -59
-23 c-32 -13 -82 -34 -112 -47 -30 -13 -66 -27 -81 -30 l-28 -5 -8 93 c-5 52
-9 100 -9 108 0 13 229 118 262 120 6 1 14 -16 17 -36z m1608 -10 c18 -21 33
-69 43 -133 4 -25 10 -71 15 -102 5 -31 6 -66 3 -78 -8 -30 -39 -24 -65 13
-32 45 -66 73 -118 98 -81 39 -227 10 -273 -55 -22 -30 -22 -38 -25 -365 -2
-184 -1 -345 2 -357 14 -53 80 -36 168 45 64 59 95 114 118 216 11 47 20 70
30 70 13 0 15 -47 18 -315 2 -173 0 -334 -3 -357 -9 -60 -31 -56 -44 7 -14 64
-52 125 -93 146 -60 31 -170 -4 -197 -62 -6 -14 -7 -186 -4 -473 5 -371 9
-453 20 -463 35 -29 278 140 398 275 74 84 90 87 81 14 -4 -30 -11 -90 -15
-135 -5 -45 -14 -88 -20 -96 -7 -8 -45 -27 -84 -42 -40 -15 -90 -35 -112 -45
-22 -10 -150 -66 -285 -125 -135 -58 -282 -124 -326 -145 -45 -21 -94 -41
-109 -45 -27 -7 -28 -6 -19 22 13 47 16 2074 3 2107 -15 36 -1 53 71 85 30 13
75 33 99 44 60 27 600 248 631 258 42 14 76 11 92 -7z m-2037 -233 c3 -55 7
-103 7 -107 0 -5 -59 -32 -132 -61 -103 -41 -135 -50 -141 -40 -8 12 -12 67
-13 174 l-1 35 120 49 c66 26 127 48 136 49 14 1 18 -16 24 -99z m-441 -102
c13 -85 14 -177 3 -186 -14 -11 -238 -97 -252 -97 -15 0 -35 197 -21 212 11
12 232 101 253 102 7 1 14 -14 17 -31z m-430 -190 c3 -29 6 -78 6 -108 0 -56
0 -56 -37 -69 -21 -7 -80 -28 -132 -47 -51 -19 -95 -33 -98 -31 -4 5 -22 165
-23 200 0 10 8 20 18 23 32 11 126 46 172 64 77 31 86 28 94 -32z m1506 -40
c0 -6 -11 -25 -24 -42 -12 -17 -32 -47 -42 -66 -18 -34 -19 -75 -22 -1073 l-2
-1038 -98 -45 c-139 -65 -190 -84 -206 -78 -9 3 -34 40 -57 82 -72 130 -111
198 -249 422 -46 74 -126 206 -178 293 -77 128 -99 157 -117 157 -50 0 -50 3
-53 -549 -2 -283 0 -526 3 -540 4 -14 25 -42 47 -63 l41 -38 -49 -21 c-27 -11
-58 -24 -69 -29 -11 -5 -69 -27 -130 -50 -60 -23 -116 -44 -122 -47 -23 -9
-13 26 21 74 18 27 38 63 45 82 14 42 16 1918 2 1940 -5 8 -24 22 -43 30 -41
20 -49 54 -16 75 13 8 73 36 133 62 127 53 192 62 224 29 20 -20 93 -145 172
-290 73 -137 339 -617 376 -680 56 -94 81 -106 110 -52 17 30 18 76 18 636 l0
603 -37 33 c-31 26 -49 55 -35 55 2 0 75 31 162 70 160 70 195 80 195 58z
m-1945 -125 c13 -148 14 -146 -25 -164 -49 -23 -230 -82 -235 -77 -10 10 -26
201 -17 210 5 5 60 27 122 48 62 22 115 42 118 45 19 19 31 -1 37 -62z m-444
-90 c0 -5 2 -17 3 -28 16 -110 18 -185 5 -189 -74 -25 -247 -76 -256 -76 -12
0 -21 55 -25 150 l-2 64 130 42 c141 47 144 47 145 37z m-438 -140 c3 -5 8
-53 11 -109 l7 -101 -124 -36 c-68 -21 -131 -37 -139 -37 -15 0 -28 79 -28
175 l0 40 103 29 c56 16 109 33 117 37 19 11 47 11 53 2z m-428 -225 c4 -55 3
-104 -2 -109 -11 -11 -261 -75 -267 -68 -3 3 -9 53 -12 111 l-7 105 39 7 c21
4 50 11 64 15 14 5 45 14 70 21 25 7 54 16 65 20 36 13 42 1 50 -102z m-442
-117 c5 -57 6 -105 4 -108 -8 -7 -268 -66 -273 -61 -7 7 -20 198 -14 207 3 5
52 20 110 34 136 33 143 35 155 32 6 -1 14 -48 18 -104z m-441 -100 c5 -58 6
-106 5 -108 -6 -6 -230 -53 -253 -53 -20 0 -23 6 -29 68 -3 37 -8 83 -11 104
-6 42 -16 37 136 68 57 12 107 23 109 26 3 3 12 3 21 2 12 -3 17 -25 22 -107z
m10512 52 c17 -118 18 -163 3 -168 -23 -9 -257 -31 -266 -25 -13 9 -28 192
-15 197 10 4 207 29 251 32 17 1 22 -6 27 -36z m-8224 10 c0 -3 -11 -29 -25
-57 l-25 -52 2 -998 3 -998 23 -18 c42 -34 29 -46 -96 -86 -167 -53 -434 -125
-440 -119 -3 3 9 34 28 68 l35 62 0 961 0 962 -32 40 c-28 35 -41 62 -30 62 9
0 501 170 505 175 8 7 52 6 52 -2z m7770 -54 c4 -13 10 -59 14 -101 8 -90 26
-78 -154 -102 -82 -11 -116 -12 -121 -4 -4 6 -10 41 -13 77 -4 36 -9 78 -12
92 -5 25 -4 26 83 38 48 7 108 17 133 21 58 10 63 9 70 -21z m-10506 -51 c4
-35 9 -84 12 -109 6 -46 6 -46 -27 -53 -126 -26 -245 -44 -250 -38 -4 4 -9 50
-12 103 -7 105 -2 119 44 119 25 0 83 10 169 30 19 4 40 8 46 9 7 1 14 -25 18
-61z m10055 -10 c13 -35 23 -176 13 -182 -5 -3 -37 -10 -73 -16 -188 -32 -191
-32 -200 -19 -12 19 -23 179 -13 189 7 7 203 45 252 49 7 1 16 -9 21 -21z
m-435 -161 c5 -54 7 -99 5 -101 -2 -2 -58 -15 -124 -29 -66 -13 -126 -26 -134
-28 -12 -3 -18 18 -29 94 -9 58 -11 101 -6 107 11 11 231 59 259 57 18 -2 21
-12 29 -100z m-450 -54 c4 -38 9 -85 13 -105 5 -36 4 -37 -33 -46 -22 -5 -70
-17 -109 -27 -38 -9 -87 -19 -107 -22 l-38 -5 0 48 c-1 27 -5 69 -10 94 -6 32
-5 48 3 57 7 6 64 24 127 38 63 15 117 28 119 31 18 17 29 -4 35 -63z m-7460
-145 c-1 -218 -11 -258 -47 -183 -23 49 -94 123 -139 146 -135 69 -287 -50
-344 -267 -25 -96 -38 -406 -39 -904 0 -483 5 -563 40 -668 21 -61 39 -85 84
-110 45 -25 59 -27 115 -10 69 21 165 136 207 249 29 78 37 228 15 301 -32
111 -11 140 54 76 57 -58 84 -130 88 -237 6 -148 -35 -257 -136 -359 -210
-214 -485 -221 -687 -16 -281 283 -357 927 -175 1484 46 144 143 312 233 407
134 142 300 213 500 213 98 0 159 15 188 46 15 16 26 21 33 14 6 -6 10 -80 10
-182z m7010 87 c8 -22 20 -195 13 -195 -3 0 -30 -6 -59 -14 -29 -8 -87 -24
-128 -35 -41 -11 -78 -17 -82 -13 -11 11 -27 186 -18 196 5 5 33 15 62 23 29
8 82 23 118 33 82 23 87 23 94 5z m-440 -147 c19 -142 19 -166 0 -171 -11 -3
-66 -20 -124 -37 -58 -17 -112 -34 -121 -36 -19 -5 -24 14 -35 133 -5 57 -4
74 7 77 8 2 41 12 74 21 33 10 83 25 110 35 77 27 82 26 89 -22z m-443 -128
c4 -18 9 -64 11 -103 l3 -70 -134 -44 c-73 -24 -135 -42 -138 -40 -8 8 -27
197 -20 203 9 9 250 91 262 89 5 -1 13 -16 16 -35z m-433 -199 c16 -117 16
-114 -15 -128 -51 -21 -230 -83 -241 -83 -14 0 -19 25 -26 122 -3 53 -1 80 7
85 15 10 238 91 253 92 6 1 16 -37 22 -88z m-444 -118 c3 -27 8 -73 12 -104
l6 -56 -34 -12 c-18 -7 -42 -17 -53 -21 -151 -60 -185 -73 -189 -69 -9 9 -27
202 -19 209 4 4 36 17 70 29 34 12 88 33 120 46 32 13 63 24 70 25 6 0 14 -21
17 -47z m-440 -165 c4 -24 7 -71 9 -106 l2 -63 -128 -54 c-71 -30 -133 -55
-138 -55 -5 0 -9 10 -10 23 0 12 -4 56 -8 97 -8 76 -6 100 10 100 5 0 32 11
61 24 86 39 172 74 185 75 7 1 14 -18 17 -41z m-440 -160 c3 -13 9 -61 12
-108 l7 -85 -74 -34 c-163 -73 -190 -84 -199 -75 -4 5 -12 53 -17 106 l-9 98
64 27 c36 16 94 42 131 60 80 38 77 38 85 11z m-430 -245 c4 -38 9 -85 13
-105 l5 -37 -88 -42 c-120 -56 -174 -79 -184 -79 -11 0 -17 38 -24 138 l-5 73
87 40 c48 22 105 48 127 59 22 10 45 19 51 20 7 0 14 -28 18 -67z m-441 -140
c3 -5 8 -53 12 -108 l7 -100 -29 -12 c-15 -7 -66 -28 -113 -48 -47 -19 -93
-40 -104 -46 -10 -6 -22 -7 -27 -2 -4 4 -9 54 -11 111 l-3 103 80 35 c44 19
98 44 120 54 44 21 61 24 68 13z m-429 -270 c4 -49 8 -97 9 -107 2 -16 -22
-30 -133 -78 -74 -31 -138 -54 -142 -50 -3 4 -9 54 -13 112 l-7 105 129 52
c70 29 133 52 139 53 7 0 14 -34 18 -87z m-440 -145 c12 -120 13 -158 2 -166
-6 -5 -49 -24 -96 -42 -47 -18 -99 -39 -117 -47 -38 -18 -56 -14 -58 13 -1 10
-5 56 -9 101 -8 79 -7 82 16 94 33 18 231 97 245 98 7 1 14 -20 17 -51z m-440
-195 c4 -38 9 -84 12 -104 l5 -36 -68 -28 c-134 -54 -205 -77 -213 -68 -4 4
-11 53 -15 109 l-6 100 133 51 c73 28 136 49 139 47 4 -2 10 -34 13 -71z
m-440 -135 c11 -94 14 -168 5 -174 -9 -5 -131 -51 -218 -80 -24 -9 -47 -12
-51 -7 -4 4 -11 54 -14 109 l-7 101 28 11 c95 37 221 80 235 81 13 1 18 -10
22 -41z m-449 -120 c10 -27 21 -189 14 -200 -10 -15 -262 -98 -271 -89 -4 4
-9 53 -10 110 l-3 104 125 43 c144 49 139 48 145 32z m-433 -247 l3 -104 -105
-34 c-58 -18 -119 -36 -136 -39 l-32 -6 -8 99 c-5 54 -9 102 -9 107 0 14 265
97 277 87 3 -3 8 -53 10 -110z m-446 -68 c4 -27 8 -75 8 -107 l1 -59 -135 -38
c-74 -21 -137 -36 -139 -33 -6 5 -21 207 -16 212 7 7 230 70 252 71 19 1 23
-6 29 -46z m-438 -177 c5 -64 4 -100 -3 -105 -18 -14 -258 -72 -266 -64 -4 5
-11 52 -16 107 -8 85 -7 99 7 104 42 17 256 68 263 62 4 -3 11 -50 15 -104z
m-454 -8 c3 -7 7 -56 10 -109 l6 -96 -72 -17 c-225 -52 -207 -50 -212 -24 -3
13 -7 62 -10 110 -6 85 -5 88 16 92 13 3 68 15 123 26 54 12 101 23 104 26 9
9 32 4 35 -8z m-439 -183 c4 -52 5 -100 2 -108 -4 -11 -213 -58 -259 -57 -17
0 -19 13 -32 157 -5 61 -19 52 134 82 158 32 147 37 155 -74z m-451 -22 c8
-53 8 -171 -1 -176 -14 -8 -262 -41 -267 -36 -3 3 -9 51 -14 107 -7 99 -7 103
13 107 58 12 195 32 226 34 35 1 37 -1 43 -36z"/>
<path d="M13208 7142 c-14 -16 -25 -58 -68 -247 -11 -49 -25 -106 -30 -125
-18 -66 -50 -222 -50 -240 0 -33 21 -38 100 -24 41 8 97 18 123 23 27 4 58 18
70 29 l21 21 -28 123 c-15 68 -31 142 -36 166 -6 23 -14 61 -19 85 -46 204
-54 223 -83 189z"/>
<path d="M14754 8624 c-3 -10 -10 -29 -15 -42 -16 -39 -11 -42 66 -42 73 0 76
-1 87 -27 6 -16 11 -57 12 -93 l1 -65 -107 -9 c-125 -10 -116 3 -123 -163 -6
-141 -13 -246 -40 -573 -22 -266 -26 -328 -32 -427 -6 -118 -4 -125 47 -245 5
-13 21 -59 36 -103 27 -84 35 -104 52 -145 6 -14 18 -47 27 -75 10 -27 21 -59
25 -70 17 -42 69 -183 95 -255 15 -41 30 -84 35 -95 4 -11 25 -65 45 -120 20
-55 40 -109 45 -120 5 -11 15 -37 22 -59 l13 -38 105 5 c58 3 112 7 120 9 17
4 41 -95 37 -152 l-2 -35 -82 -3 c-46 -2 -83 -6 -83 -10 1 -4 11 -27 23 -52
l22 -45 65 1 c36 1 148 7 250 13 102 7 249 15 328 18 78 3 142 7 142 9 0 3 -4
12 -9 22 -11 19 -29 62 -61 142 -12 30 -28 69 -35 85 -8 17 -23 55 -34 85 -12
30 -26 65 -31 78 -6 12 -14 32 -19 45 -5 12 -16 38 -24 57 -9 19 -34 85 -57
145 -23 61 -45 119 -50 130 -5 11 -20 54 -35 95 -15 41 -30 84 -35 95 -5 11
-20 54 -35 95 -15 41 -30 84 -35 95 -20 48 -62 162 -82 219 -11 33 -24 66 -29
71 -4 6 -3 46 3 90 6 49 8 190 5 360 -8 358 1 452 74 835 37 191 43 236 31
244 -5 3 -117 10 -248 16 -132 5 -299 13 -371 16 -125 7 -133 6 -139 -12z
m518 -113 c3 -3 9 -41 13 -83 l7 -78 -120 0 -119 0 -6 28 c-3 15 -9 55 -13 90
l-7 63 119 -7 c66 -3 122 -9 126 -13z m410 -2711 c5 -41 5 -77 0 -81 -4 -4
-58 -9 -121 -11 -128 -3 -114 -13 -127 89 -11 85 -12 84 123 81 l118 -3 7 -75z"/>
<path d="M3178 5425 c-3 -3 -41 -10 -84 -16 -44 -6 -108 -15 -144 -19 -156
-22 -388 -51 -430 -54 -28 -2 -34 -6 -32 -22 4 -21 38 -127 52 -159 5 -11 16
-45 25 -75 9 -30 20 -64 25 -75 12 -26 102 -291 142 -415 16 -52 49 -153 73
-225 23 -71 48 -150 55 -175 8 -25 17 -49 20 -55 4 -5 15 -37 25 -70 20 -69
55 -175 85 -259 14 -40 19 -68 14 -90 -9 -42 -10 -53 -23 -336 -15 -354 -21
-449 -31 -500 -5 -25 -16 -90 -25 -145 -9 -55 -20 -118 -25 -140 -5 -22 -14
-69 -20 -105 -6 -36 -16 -85 -20 -110 -28 -139 -41 -207 -43 -220 -2 -18 38
-18 253 -2 80 7 204 16 275 22 72 5 139 12 150 14 11 2 37 5 57 5 36 1 37 1
48 57 7 30 10 57 8 60 -3 2 -30 -1 -62 -7 -31 -5 -71 -9 -89 -7 -28 3 -32 7
-34 33 -1 17 -5 60 -9 98 l-7 67 34 2 c108 5 219 20 225 29 3 5 12 53 20 106
25 160 38 238 66 393 5 30 14 210 19 400 5 190 10 368 13 395 3 38 -5 74 -31
150 -19 55 -42 127 -52 160 -27 86 -220 666 -230 690 -5 11 -14 34 -19 50 -6
17 -14 39 -18 50 -4 11 -22 63 -40 115 -26 78 -35 94 -50 92 -11 -1 -48 -7
-84 -12 -36 -4 -80 -12 -99 -16 -50 -10 -61 11 -61 113 0 46 3 83 8 84 43 4
75 8 118 16 l52 8 -21 45 c-11 25 -26 48 -31 52 -13 9 -40 10 -48 3z m-215
-162 c3 -5 6 -46 8 -93 l4 -85 -65 -7 c-36 -4 -88 -10 -117 -13 l-51 -6 -6 53
c-3 29 -7 71 -8 93 l-3 40 80 11 c100 14 153 16 158 7z m320 -2876 c5 -49 7
-90 5 -92 -5 -5 -232 -24 -236 -20 -8 8 -19 170 -12 178 6 7 186 26 220 23 11
-1 17 -22 23 -89z"/>
<path d="M13420 4860 c-14 -5 -49 -13 -77 -19 -208 -43 -202 -40 -239 -109
-53 -99 -86 -155 -119 -207 -17 -27 -50 -79 -73 -115 -43 -69 -55 -86 -172
-245 -87 -117 -129 -169 -266 -325 -136 -153 -429 -436 -509 -490 -12 -8 -30
-23 -40 -33 -58 -60 -448 -331 -591 -413 -139 -78 -399 -212 -461 -237 -23 -9
-64 -26 -90 -38 -26 -11 -57 -24 -68 -29 -11 -4 -33 -13 -50 -20 -48 -20 -67
-27 -120 -45 -27 -10 -59 -21 -70 -26 -28 -12 -202 -66 -250 -78 -22 -5 -58
-15 -80 -21 -103 -29 -212 -53 -420 -91 -499 -91 -1141 -84 -1670 20 -176 35
-216 44 -312 72 -21 6 -53 13 -71 16 -18 3 -35 9 -38 14 -3 5 -14 9 -24 9 -18
0 -210 60 -255 79 -24 11 -58 24 -65 25 -3 1 -27 10 -53 20 -46 17 -51 17
-105 1 -106 -32 -127 -39 -137 -47 -5 -4 -19 -8 -31 -8 -13 0 -26 -4 -29 -10
-3 -5 -17 -10 -30 -10 -13 0 -27 -4 -30 -10 -3 -6 -15 -10 -26 -10 -10 0 -19
-4 -19 -10 0 -8 37 -28 115 -59 30 -13 118 -52 137 -62 10 -5 23 -9 29 -9 6 0
25 -6 42 -14 18 -7 59 -24 92 -36 33 -12 69 -26 80 -30 11 -5 61 -20 110 -35
50 -15 101 -31 115 -35 37 -13 268 -72 318 -82 23 -4 63 -13 90 -18 110 -25
248 -46 462 -71 149 -17 489 -29 680 -23 195 5 312 15 500 41 63 9 129 17 145
18 17 2 55 8 85 14 30 7 75 16 100 21 59 12 139 30 275 64 96 24 126 32 205
59 41 13 100 32 130 41 54 16 63 20 125 46 36 15 58 24 105 40 36 13 69 27
130 53 19 8 55 23 79 33 44 19 256 124 361 180 30 16 57 32 58 36 2 5 7 8 12
8 14 0 270 158 369 229 51 36 114 80 140 98 25 18 96 73 156 123 61 50 139
115 175 144 72 60 407 398 485 491 47 55 160 196 177 220 4 5 20 26 36 45 15
19 34 45 42 56 91 134 177 262 185 276 6 9 30 50 55 90 55 90 54 89 151 275
44 83 79 156 79 162 0 12 -4 12 -40 1z"/>
<path d="M12805 4723 c-26 -5 -219 -50 -267 -63 -104 -27 -125 -33 -148 -41
-22 -7 -70 -18 -108 -25 -17 -3 -42 -24 -42 -35 0 -15 -67 -114 -128 -190 -79
-98 -192 -195 -292 -251 -25 -14 -61 -34 -80 -45 -56 -32 -213 -82 -318 -103
-77 -15 -295 -12 -383 5 -82 15 -258 71 -273 86 -6 5 -17 9 -26 9 -15 0 -99
-31 -170 -62 -14 -6 -35 -15 -47 -19 -36 -14 -71 -28 -95 -39 -13 -5 -48 -19
-78 -31 -30 -11 -68 -27 -85 -34 -16 -7 -59 -25 -95 -40 -36 -15 -83 -35 -105
-45 -35 -16 -70 -31 -140 -60 -25 -10 -75 -31 -140 -59 -27 -12 -59 -26 -70
-31 -11 -4 -49 -21 -85 -38 -36 -16 -87 -38 -114 -48 -26 -10 -51 -26 -54 -34
-18 -50 -129 -197 -202 -271 -78 -78 -209 -179 -270 -206 -160 -73 -171 -77
-225 -92 -22 -6 -58 -16 -80 -22 -22 -6 -105 -13 -185 -16 -136 -5 -189 -1
-320 26 -45 9 -74 2 -177 -44 -18 -8 -50 -22 -70 -31 -21 -9 -47 -20 -58 -25
-11 -5 -45 -18 -75 -30 -30 -11 -68 -26 -85 -34 -34 -15 -52 -22 -114 -45 -57
-20 -62 -36 -14 -44 38 -7 91 -22 128 -37 11 -4 31 -10 45 -14 14 -3 48 -12
75 -20 28 -7 77 -19 110 -25 33 -7 78 -16 100 -21 129 -30 363 -64 525 -77
194 -15 747 -7 875 13 22 3 58 8 80 10 56 5 192 28 325 55 30 7 62 13 70 14
53 10 224 54 255 66 41 16 128 40 144 40 9 0 21 4 27 8 5 4 27 14 49 21 22 7
49 16 60 21 11 5 54 21 95 36 41 15 98 38 127 51 50 22 90 39 105 42 13 4 291
146 343 176 98 56 110 63 145 81 19 11 37 22 40 25 3 4 52 37 110 75 367 237
725 562 1030 934 118 144 287 386 359 514 24 43 24 44 -4 39z"/>
<path d="M13545 4406 c9 -56 -7 -66 -105 -66 -94 0 -131 -17 -165 -74 -44 -75
-38 -156 22 -336 80 -240 289 -522 448 -607 96 -51 135 -57 395 -58 283 -2
308 -7 383 -74 187 -168 195 -431 15 -482 -135 -38 -346 31 -492 160 -71 63
-80 68 -91 51 -13 -21 42 -91 187 -240 l147 -151 98 26 c54 14 118 33 143 41
113 38 186 110 216 212 33 116 -17 315 -113 451 -70 97 -174 202 -255 257
-139 93 -258 118 -513 108 -177 -7 -217 -1 -284 44 -180 121 -291 458 -171
522 96 51 308 -27 504 -185 127 -103 124 -101 132 -92 14 14 -15 50 -197 239
-102 106 -207 217 -233 246 -62 66 -80 68 -71 8z"/>
<path d="M13086 3811 c-3 -5 -1 -23 5 -40 20 -57 12 -61 -108 -54 -103 5 -111
4 -165 -21 -89 -42 -163 -148 -188 -269 -16 -81 -18 -266 -2 -364 44 -282 160
-564 320 -780 141 -189 322 -294 511 -296 105 -1 171 18 273 78 174 101 255
267 246 503 -2 75 -7 105 -22 127 -16 25 -20 27 -30 13 -7 -9 -13 -50 -14 -92
-2 -42 -9 -96 -16 -120 -33 -109 -124 -228 -206 -271 -18 -9 -64 -19 -104 -22
-87 -6 -204 25 -291 78 -328 197 -647 844 -560 1137 65 216 332 198 661 -45
39 -29 77 -60 84 -68 17 -21 40 -19 40 4 0 21 -16 42 -120 161 -36 41 -101
120 -144 175 -84 107 -145 175 -157 175 -4 0 -10 -4 -13 -9z"/>
<path d="M12117 3042 c-105 -101 -164 -143 -224 -161 -47 -13 -52 -24 -27 -60
14 -19 22 -22 48 -16 17 4 55 9 84 12 54 5 54 5 100 -44 60 -62 240 -378 412
-723 40 -80 92 -184 116 -232 53 -104 58 -160 19 -223 -28 -45 -31 -67 -11
-84 11 -9 24 -4 62 25 65 50 180 108 278 140 111 36 136 52 136 85 0 40 -24
55 -64 41 -68 -25 -130 -8 -187 51 -19 19 -74 111 -123 204 -49 92 -114 215
-145 273 -59 113 -226 402 -285 493 -81 128 -89 158 -56 222 18 35 18 41 5 62
-9 13 -22 23 -31 23 -8 0 -56 -40 -107 -88z"/>
<path d="M11740 2727 c0 -8 -9 -22 -21 -33 -17 -15 -43 -20 -129 -25 -105 -6
-110 -8 -167 -45 -45 -31 -64 -52 -88 -98 -73 -144 -30 -359 100 -504 26 -29
64 -61 84 -71 79 -40 249 -78 431 -96 110 -10 195 -42 236 -88 77 -84 100
-205 60 -310 -21 -57 -82 -114 -131 -123 -100 -18 -226 22 -338 108 -59 46
-74 61 -135 136 -24 28 -47 52 -52 52 -36 0 2 -92 91 -219 33 -47 74 -111 92
-141 l33 -55 99 3 c197 5 275 26 346 95 46 45 73 104 94 203 20 96 14 167 -21
266 -37 102 -75 167 -142 235 -91 94 -175 125 -390 143 -233 20 -270 26 -312
54 -124 82 -123 283 2 347 116 59 326 -10 446 -147 22 -24 47 -44 55 -44 26 0
6 46 -59 139 -33 46 -79 115 -104 154 -43 67 -80 97 -80 64z"/>
<path d="M10994 2331 c-31 -28 -34 -29 -145 -29 -100 1 -121 -3 -169 -24 -169
-76 -214 -253 -115 -454 42 -86 93 -143 160 -177 65 -32 226 -82 335 -102 255
-48 290 -64 345 -165 26 -48 30 -65 30 -135 0 -91 -26 -163 -73 -204 -37 -32
-65 -41 -128 -41 -134 0 -287 99 -415 268 -28 37 -56 67 -62 67 -24 0 -17 -42
16 -105 43 -83 161 -289 179 -313 11 -16 31 -18 168 -18 133 -1 163 2 208 19
153 59 240 291 187 497 -34 129 -117 267 -197 325 -74 54 -150 74 -418 110
-165 22 -237 57 -276 131 -21 42 -20 118 3 156 91 150 363 115 526 -68 33 -37
59 -59 66 -54 17 10 5 40 -59 140 -32 50 -70 114 -86 144 -16 30 -33 56 -39
58 -5 1 -24 -10 -41 -26z"/>
<path d="M7317 2010 c-118 -30 -198 -132 -232 -295 -22 -104 -22 -318 -1 -445
18 -109 78 -336 101 -379 8 -17 15 -35 15 -40 0 -23 98 -211 154 -296 111
-169 278 -317 426 -378 74 -31 151 -40 236 -27 82 12 117 29 194 89 60 48 73
65 114 141 64 122 103 304 73 344 -20 28 -33 14 -57 -62 -39 -118 -118 -215
-215 -264 -53 -26 -142 -34 -202 -18 -121 33 -317 213 -417 383 -164 279 -250
565 -251 837 l0 145 35 70 c30 61 41 73 83 94 112 55 282 16 442 -104 122 -91
291 -276 339 -372 17 -34 43 -43 52 -19 3 7 -13 58 -35 113 -22 55 -51 138
-64 184 -33 110 -42 132 -62 149 -14 12 -19 10 -40 -15 l-23 -29 -53 34 c-184
116 -309 161 -464 166 -60 2 -127 -1 -148 -6z"/>
<path d="M9740 2002 c0 -4 -4 -43 -10 -87 -13 -116 -24 -248 -35 -460 -3 -55
-8 -127 -10 -160 -2 -33 -7 -177 -10 -320 -8 -343 -10 -360 -46 -419 -17 -27
-29 -58 -27 -69 6 -42 29 -41 133 3 85 37 114 44 192 49 103 7 119 15 104 53
-8 22 -17 26 -70 31 -88 8 -130 33 -166 98 -29 52 -30 58 -30 189 0 74 3 147
7 162 11 39 71 62 241 93 126 24 151 26 178 15 29 -12 120 -121 183 -218 66
-103 67 -179 3 -249 -17 -19 -19 -27 -9 -48 15 -32 21 -31 85 4 65 36 283 107
358 116 75 9 86 17 73 52 -8 25 -15 29 -66 34 -95 10 -121 32 -277 234 -55 72
-104 135 -109 140 -4 6 -50 64 -102 130 -51 66 -104 131 -116 145 -12 14 -64
74 -115 135 -223 260 -359 392 -359 347z m112 -339 c52 -55 251 -310 261 -335
3 -10 2 -20 -4 -23 -12 -8 -265 -55 -295 -55 -43 0 -56 26 -50 99 3 36 8 125
12 196 6 133 10 165 23 165 4 0 27 -21 53 -47z"/>
<path d="M8150 1897 c0 -31 31 -54 87 -66 101 -23 155 -70 188 -166 19 -57
117 -395 145 -500 51 -195 71 -265 130 -465 29 -98 41 -157 42 -217 1 -46 -3
-60 -31 -100 -28 -39 -32 -52 -25 -73 12 -33 39 -36 110 -9 129 47 244 67 511
88 120 10 145 16 185 49 57 48 88 188 68 311 -7 42 -18 91 -26 109 -22 54 -40
40 -64 -50 -12 -46 -31 -102 -42 -125 -27 -58 -89 -117 -155 -148 -67 -32
-186 -58 -225 -49 -64 13 -95 96 -262 689 -20 72 -69 237 -107 367 -65 216
-70 239 -57 264 8 18 25 31 46 36 24 6 32 14 30 26 -3 15 -23 17 -203 17 -121
1 -218 6 -245 13 -60 15 -100 15 -100 -1z"/>
</g>
</svg>
